<?xml version="1.0" encoding="utf-8"?>
<!-- Generator: Adobe Illustrator 28.1.0, SVG Export Plug-In . SVG Version: 6.00 Build 0)  -->
<svg version="1.1" id="Livello_1" xmlns="http://www.w3.org/2000/svg" xmlns:xlink="http://www.w3.org/1999/xlink" x="0px" y="0px"
	 viewBox="0 0 1000 270.2" style="enable-background:new 0 0 1000 270.2;" xml:space="preserve">
<style type="text/css">
	.st0{fill:#D81F27;}
</style>
<g>
	<g>
		<path class="st0" d="M118,60.4c0,3.6,0,5.4,0,8.9c0.6,20.5-6.5,41.9-25.6,51.9c21.5,7.7,30.5,30,29.3,51.7c0,8.1,0,12.2,0,20.3
			c0.4,37-23.7,62.5-59.9,67.3c-20.6,3-41.2,6.2-61.8,9.6c0-89,0-178.1,0-267.1C19.9,3,39.7,3,59.6,2.9C96.2,2,119,23.6,118,60.4z
			 M39.5,40.3c0,23,0,46-0.1,69c6.2-0.4,9.2-0.6,15.4-1c14.7-0.9,23.7-8,23.7-28.4c0-5.7,0-8.5,0-14.2c0-18.2-6.1-26.1-20.1-25.8
			C50.9,40,47.1,40.1,39.5,40.3z M39.4,146.5c0,26.7,0,53.4-0.1,80.1c9-1.2,13.5-1.8,22.5-2.9c13.2-1.7,20.4-8.7,20.4-27.6
			c0-8.9,0-13.3,0-22.2c0-23.7-7.5-30.4-25.4-28.9C49.9,145.6,46.4,145.9,39.4,146.5z"/>
		<path class="st0" d="M142.4,62.1C141.8,25.5,165.9,0,202.5,0c35.1,0,60.6,23.2,59.8,59.2c-0.1,40.8-0.2,81.6-0.3,122.4
			c0.5,36.4-25.1,60.9-60.1,64.6c-36.2,3.8-60.7-19-59.8-55.6C142.2,147.8,142.3,105,142.4,62.1z M181.6,189.7
			c0,17.3,7.8,23.2,20.4,22.1c12.6-1.1,20.5-8.2,20.5-25.2c0.1-43,0.2-86,0.3-128.9c0-17.1-7.8-23.4-20.4-23.3
			c-12.6,0.2-20.5,6.9-20.5,24.2C181.8,102.3,181.7,146,181.6,189.7z"/>
		<path class="st0" d="M284.6,58.8C284,22.7,309.6,0,344.7,0c34.3,0,60.6,21.5,59.9,57.3c0,39.5-0.1,78.9-0.1,118.4
			c0.6,36-26,57.9-60.2,59.8c-34.8,1.9-60.8-18.9-59.9-55.1C284.4,139.8,284.5,99.3,284.6,58.8z M323.9,180.7
			c0,16.5,7.9,22.4,20.5,21.8c12.6-0.6,20.5-7.1,20.5-23.4c0.1-41.3,0.1-82.5,0.2-123.8c0-16.4-7.9-22.5-20.4-22.5
			c-12.6,0.1-20.5,6.4-20.5,23C324,97.5,324,139.1,323.9,180.7z"/>
		<path class="st0" d="M430.2,2.6c15.8,0,23.7,0,39.5,0c0,64.7-0.1,129.4-0.1,194c21.7-0.2,43.4-0.2,65.2,0c0,12.9,0,19.4,0,32.3
			c-34.9-0.4-69.9-0.2-104.8,0.6C430,153.9,430.1,78.3,430.2,2.6z"/>
		<path class="st0" d="M591.5,103.7c17,0.2,34,0.5,51,0.9c0,13.1,0,19.7,0.1,32.8c-17-0.5-34-0.9-51.1-1.2c0,31.3,0.1,62.6,0.1,94
			c-15.8-0.5-23.8-0.7-39.6-0.9c-0.1-75.6-0.1-151.1-0.2-226.7c34.8,0,69.7,0,104.5,0c0,13.2,0,19.7,0.1,32.9
			c-21.7-0.2-43.3-0.3-65-0.4C591.5,58,591.5,80.9,591.5,103.7z"/>
		<path class="st0" d="M675.4,2.6c15.8,0,23.7,0,39.5,0c0.2,66.8,0.3,133.6,0.5,200.4c21.7,1.3,43.4,2.8,65,4.6
			c0,13.7,0,20.5,0.1,34.1c-34.8-3.1-69.7-5.9-104.6-7.9C675.7,156.8,675.6,79.7,675.4,2.6z"/>
		<path class="st0" d="M797.1,2.8c15.8,0,23.7,0,39.5,0c0.2,81.6,0.4,163.2,0.6,244.8c-15.8-1.8-23.7-2.6-39.5-4.1
			C797.5,163.2,797.3,83,797.1,2.8z"/>
		<path class="st0" d="M997.1,3c-13.5,42.2-27.2,84.3-41.2,126.3c15,46.8,29.7,93.8,44.1,140.8c-16.6-2.8-24.8-4.1-41.4-6.6
			c-10.6-35.4-21.4-70.7-32.3-106c-10.7,32.3-21.5,64.6-32.4,96.8c-14.8-1.9-22.1-2.8-36.9-4.6c14.8-41.4,29.4-82.8,43.8-124.3
			c-13.6-41-27.4-81.9-41.5-122.7c16.4,0,24.6,0,40.9,0.1c10.1,31.5,20.1,63,29.9,94.6C940.4,66,950.5,34.5,960.5,3
			C975.2,3,982.5,3,997.1,3z"/>
	</g>
</g>
</svg>
