<?xml version="1.0" encoding="utf-8"?>
<!-- Generator: Adobe Illustrator 28.1.0, SVG Export Plug-In . SVG Version: 6.00 Build 0)  -->
<svg version="1.1" id="Livello_1" xmlns="http://www.w3.org/2000/svg" xmlns:xlink="http://www.w3.org/1999/xlink" x="0px" y="0px"
	 viewBox="0 0 325.8 325.8" style="enable-background:new 0 0 325.8 325.8;" xml:space="preserve">
<style type="text/css">
	.st0{fill:#B1060F;}
	
		.st1{clip-path:url(#SVGID_00000106143846358203432330000003520321203498730165_);fill:url(#SVGID_00000141454754010316035790000012815373599111330494_);}
	.st2{fill:#E50914;}
	.st3{filter:url(#Adobe_OpacityMaskFilter);}
	.st4{fill:url(#SVGID_00000047745549749705006290000004869683257351376828_);}
	.st5{mask:url(#SVGID_00000168827080100404159030000017895835176540186776_);}
	.st6{fill:url(#SVGID_00000086690498808031645120000002624758168204251827_);}
	.st7{filter:url(#Adobe_OpacityMaskFilter_00000089532319386496839750000015397588526559826082_);}
	.st8{fill:url(#SVGID_00000070077227296745617670000016487874460285798589_);}
	.st9{mask:url(#SVGID_00000111903188923499290190000015583836256188793788_);}
	.st10{fill:url(#SVGID_00000005245730275041693840000011702623658928832430_);}
	.st11{filter:url(#Adobe_OpacityMaskFilter_00000105394521633667909560000002271374109929332415_);}
	.st12{fill:url(#SVGID_00000042003479360380391080000001912362456479595437_);}
	.st13{mask:url(#SVGID_00000124871875864919216630000011443826821663241863_);}
	.st14{fill:url(#SVGID_00000065767334609503238010000008509062644586210993_);}
	.st15{fill:none;}
</style>
<g>
	<g>
		<path class="st0" d="M144.4,268.6c-11.3,0.5-22.5,1.3-33.9,2.3c0-72,0-144,0-215.9c17.1,0,17.1,0,34.1,0 M144.4,85.4
			c0,18.8,0,37.6,0,56.4 M144.4,172.3c0,21.8,0,43.7,0,65.5"/>
	</g>
</g>
<g>
	<defs>
		<filter id="Adobe_OpacityMaskFilter" filterUnits="userSpaceOnUse" x="131.3" y="54.9" width="19.6" height="42.2">
			
				<feColorMatrix  type="matrix" values="-1 0 0 0 1  0 -1 0 0 1  0 0 -1 0 1  0 0 0 1 0" color-interpolation-filters="sRGB" result="source"/>
		</filter>
	</defs>
	
		<mask maskUnits="userSpaceOnUse" x="131.3" y="54.9" width="19.6" height="42.2" id="SVGID_00000121267672860912160260000007118684893582822578_">
		<g class="st3">
			
				<linearGradient id="SVGID_00000123422670069399918050000011272543656660058769_" gradientUnits="userSpaceOnUse" x1="142.8409" y1="91.4198" x2="142.8409" y2="43.9077" gradientTransform="matrix(-1 0 0 -1 285.6818 140.9361)">
				<stop  offset="0.7405" style="stop-color:#000000"/>
				<stop  offset="0.9881" style="stop-color:#000000;stop-opacity:0"/>
			</linearGradient>
			<polygon style="fill:url(#SVGID_00000123422670069399918050000011272543656660058769_);" points="154,97 131.7,97 131.7,49.5 
				154,49.5 			"/>
		</g>
	</mask>
	<g style="mask:url(#SVGID_00000121267672860912160260000007118684893582822578_);">
		
			<linearGradient id="SVGID_00000019670738856667319520000015813119955798232745_" gradientUnits="userSpaceOnUse" x1="131.3457" y1="76.0531" x2="150.9371" y2="76.0531">
			<stop  offset="0.206" style="stop-color:#000000;stop-opacity:0"/>
			<stop  offset="0.8124" style="stop-color:#000000;stop-opacity:0.3"/>
		</linearGradient>
		<polygon style="fill:url(#SVGID_00000019670738856667319520000015813119955798232745_);" points="150.9,85.4 144.6,85.4 
			144.5,97.2 131.3,97.2 131.7,54.9 150.9,54.9 		"/>
	</g>
	<defs>
		
			<filter id="Adobe_OpacityMaskFilter_00000006704729729922360990000008758038612945893051_" filterUnits="userSpaceOnUse" x="131.2" y="226.2" width="19.6" height="42.2">
			
				<feColorMatrix  type="matrix" values="-1 0 0 0 1  0 -1 0 0 1  0 0 -1 0 1  0 0 0 1 0" color-interpolation-filters="sRGB" result="source"/>
		</filter>
	</defs>
	
		<mask maskUnits="userSpaceOnUse" x="131.2" y="226.2" width="19.6" height="42.2" id="SVGID_00000019673192896740177410000005442465083523712936_">
		<g style="filter:url(#Adobe_OpacityMaskFilter_00000006704729729922360990000008758038612945893051_);">
			
				<linearGradient id="SVGID_00000000921134325982183410000007145894216350023831_" gradientUnits="userSpaceOnUse" x1="136.1808" y1="274.434" x2="136.1808" y2="226.922">
				<stop  offset="0.7405" style="stop-color:#000000"/>
				<stop  offset="0.9881" style="stop-color:#000000;stop-opacity:0"/>
			</linearGradient>
			
				<rect x="125" y="226.9" style="fill:url(#SVGID_00000000921134325982183410000007145894216350023831_);" width="22.3" height="47.5"/>
		</g>
	</mask>
	<g style="mask:url(#SVGID_00000019673192896740177410000005442465083523712936_);">
		
			<linearGradient id="SVGID_00000144327813910002429810000016693720880713403826_" gradientUnits="userSpaceOnUse" x1="131.1528" y1="220.1059" x2="150.7443" y2="220.1059" gradientTransform="matrix(1 0 0 -1 0 467.3773)">
			<stop  offset="0.206" style="stop-color:#000000;stop-opacity:0"/>
			<stop  offset="0.8124" style="stop-color:#000000;stop-opacity:0.3"/>
		</linearGradient>
		<polygon style="fill:url(#SVGID_00000144327813910002429810000016693720880713403826_);" points="150.7,237.9 144.4,237.9 
			144.4,226.2 131.2,226.2 131.5,268.4 150.7,268.4 		"/>
	</g>
	<defs>
		
			<filter id="Adobe_OpacityMaskFilter_00000148643019700070535460000015093313902921853832_" filterUnits="userSpaceOnUse" x="131.7" y="127.8" width="19.2" height="56.5">
			
				<feColorMatrix  type="matrix" values="-1 0 0 0 1  0 -1 0 0 1  0 0 -1 0 1  0 0 0 1 0" color-interpolation-filters="sRGB" result="source"/>
		</filter>
	</defs>
	
		<mask maskUnits="userSpaceOnUse" x="131.7" y="127.8" width="19.2" height="56.5" id="SVGID_00000152943378271200748070000000086703479854407327_">
		<g style="filter:url(#Adobe_OpacityMaskFilter_00000148643019700070535460000015093313902921853832_);">
			
				<linearGradient id="SVGID_00000106106495653268208780000016866377716769333947_" gradientUnits="userSpaceOnUse" x1="137.9313" y1="182.5464" x2="137.9313" y2="129.2405">
				<stop  offset="0" style="stop-color:#000000;stop-opacity:0"/>
				<stop  offset="0.1827" style="stop-color:#000000"/>
				<stop  offset="0.7889" style="stop-color:#000000"/>
				<stop  offset="1" style="stop-color:#000000;stop-opacity:0"/>
			</linearGradient>
			
				<rect x="127.5" y="129.2" style="fill:url(#SVGID_00000106106495653268208780000016866377716769333947_);" width="20.8" height="53.3"/>
		</g>
	</mask>
	<g style="mask:url(#SVGID_00000152943378271200748070000000086703479854407327_);">
		
			<linearGradient id="SVGID_00000037662241392124750490000017380403218865352884_" gradientUnits="userSpaceOnUse" x1="131.6891" y1="156.038" x2="150.9371" y2="156.038">
			<stop  offset="0.206" style="stop-color:#000000;stop-opacity:0"/>
			<stop  offset="0.8124" style="stop-color:#000000;stop-opacity:0.3"/>
		</linearGradient>
		<polygon style="fill:url(#SVGID_00000037662241392124750490000017380403218865352884_);" points="150.9,172.4 144.5,172.3 
			144.5,183.7 131.7,184.3 131.7,128.6 144.5,127.8 144.5,141.8 150.9,141.9 		"/>
	</g>
	<g>
		<g>
			<path class="st15" d="M211.9,104.5c0,3.1,0,4.6,0,7.7c0.6,16.9-5.1,35.5-21.9,42.6c19,7.7,25.9,28.2,25.3,47.3c0,7,0,10.6,0,17.6
				c0.8,32.1-20.6,49.1-51.5,48.3c-18,0.3-35.4,1.3-53.4,2.9c0-72,0-144,0-215.9c17.1,0,34.1,0,51.2,0
				C193.3,54.2,212.7,72.8,211.9,104.5z M144.4,85.4c0,18.8,0,37.6,0,56.4c5.3-0.1,8-0.1,13.3-0.1c12.7-0.1,20.4-5.4,20.4-22.5
				c0-4.8,0-7.1,0-11.9c0-15.2-5.2-22-17.3-22C154.2,85.4,150.9,85.4,144.4,85.4z M144.4,172.3c0,21.8,0,43.7,0,65.5
				c7.8-0.3,11.7-0.3,19.5-0.3c11.4,0,17.6-4.9,17.6-20.7c0-7.4,0-11.2,0-18.6c0-19.8-6.5-26.2-21.9-26.1
				C153.5,172.2,150.4,172.2,144.4,172.3z"/>
		</g>
	</g>
</g>
<g>
	<path class="st2" d="M215.3,202.1c0.6-19.1-6.3-39.5-25.3-47.3c16.8-7.2,22.5-25.7,21.9-42.6c0-3.1,0-4.6,0-7.7
		c0.8-31.8-18.7-50.4-50.3-49.6c-5.7,0-11.4,0-17.1,0l0,30.5c6.4,0,9.7,0,16.2,0c12,0,17.3,6.7,17.3,22c0,4.8,0,7.1,0,11.9
		c0,17.1-7.7,22.4-20.4,22.5c-5.3,0-7.9,0.1-13.1,0.1l0,30.5c6-0.1,9-0.2,15-0.2c15.4-0.1,21.9,6.3,21.9,26.1c0,7.4,0,11.2,0,18.6
		c0,15.9-6.2,20.7-17.6,20.7c-7.8,0-11.7,0-19.4,0.3l0,30.7c-2,0.1-4,0.2-6,0.3c8.5-0.4,16.9-0.7,25.5-0.9
		c30.9,0.8,52.3-16.3,51.5-48.3C215.3,212.7,215.3,209.1,215.3,202.1z"/>
	<path class="st0" d="M110.5,270.9c4-0.4,8-0.7,11.9-1C118.4,270.2,114.4,270.5,110.5,270.9z"/>
	<path class="st0" d="M136.7,269c-3.9,0.2-7.8,0.5-11.6,0.7C128.9,269.5,132.8,269.2,136.7,269z"/>
</g>
</svg>
